<?xml version="1.0" encoding="UTF-8" standalone="no"?>
<!-- Created with Inkscape (http://www.inkscape.org/) -->

<svg
   version="1.1"
   id="svg2"
   xml:space="preserve"
   width="109.14774mm"
   height="49.877464mm"
   viewBox="0 0 412.52689 188.51325"
   sodipodi:docname="round_rect.svg"
   inkscape:version="1.1.1 (3bf5ae0d25, 2021-09-20)"
   xmlns:inkscape="http://www.inkscape.org/namespaces/inkscape"
   xmlns:sodipodi="http://sodipodi.sourceforge.net/DTD/sodipodi-0.dtd"
   xmlns="http://www.w3.org/2000/svg"
   xmlns:svg="http://www.w3.org/2000/svg"
   xmlns:rdf="http://www.w3.org/1999/02/22-rdf-syntax-ns#"
   xmlns:cc="http://creativecommons.org/ns#"
   xmlns:dc="http://purl.org/dc/elements/1.1/"><metadata
     id="metadata8"><rdf:RDF><cc:Work
         rdf:about=""><dc:format>image/svg+xml</dc:format><dc:type
           rdf:resource="http://purl.org/dc/dcmitype/StillImage" /></cc:Work></rdf:RDF></metadata><defs
     id="defs6" /><sodipodi:namedview
     pagecolor="#ffffff"
     bordercolor="#666666"
     borderopacity="1"
     objecttolerance="10"
     gridtolerance="10"
     guidetolerance="10"
     inkscape:pageopacity="0"
     inkscape:pageshadow="2"
     inkscape:window-width="1680"
     inkscape:window-height="985"
     id="namedview4"
     showgrid="false"
     inkscape:zoom="2.8284271"
     inkscape:cx="248.90159"
     inkscape:cy="127.98633"
     inkscape:window-x="0"
     inkscape:window-y="0"
     inkscape:window-maximized="1"
     inkscape:current-layer="g10"
     inkscape:pagecheckerboard="0"
     units="mm"
     inkscape:document-units="mm" /><g
     id="g10"
     inkscape:groupmode="layer"
     inkscape:label="ink_ext_XXXXXX"
     transform="matrix(1.3333333,0,0,-1.3333333,-258.71457,222.11443)"><path
       id="rect244"
       style="fill:#e5371c;stroke-width:3.53266"
       d="m 203.13578,84.111285 h 72.79887 c 1.26035,0 2.45922,-0.24625 3.54866,-0.69228 1.08943,-0.445996 2.06934,-1.091601 2.89177,-1.89019 0.82238,-0.798641 1.48724,-1.750197 1.94651,-2.808114 0.45925,-1.057901 0.71291,-2.222127 0.71291,-3.445986 V 34.037449 c 0,-1.223884 -0.25357,-2.38807 -0.71291,-3.445984 -0.45927,-1.057912 -1.12413,-2.009472 -1.94651,-2.808101 -0.82243,-0.798589 -1.80234,-1.444208 -2.89177,-1.890198 -1.08944,-0.445952 -2.28831,-0.692275 -3.54866,-0.692275 h -72.79887 c -1.2603,0 -2.45922,0.246244 -3.54865,0.692275 -1.08943,0.44599 -2.06935,1.091609 -2.89177,1.890198 -0.82238,0.798629 -1.48725,1.750189 -1.94652,2.808101 -0.45924,1.057914 -0.71291,2.2221 -0.71291,3.445984 v 41.237266 c 0,1.223859 0.25359,2.388085 0.71291,3.445986 0.45927,1.057917 1.12414,2.009473 1.94652,2.808114 0.82242,0.798589 1.80234,1.444194 2.89177,1.89019 1.08943,0.445944 2.28835,0.69228 3.54865,0.69228 z"
       sodipodi:nodetypes="sssssssssssssssssssss" /><path
       id="path113"
       style="fill:#e5371c;stroke-width:3.53266"
       d="m 312.33407,84.111285 h 72.79886 c 1.26035,0 2.45923,-0.24625 3.54866,-0.69228 1.08945,-0.445996 2.06934,-1.091601 2.89177,-1.89019 0.8224,-0.798641 1.48725,-1.750197 1.94654,-2.808114 0.45922,-1.057901 0.71288,-2.222127 0.71288,-3.445986 V 34.037449 c 0,-1.223884 -0.25357,-2.38807 -0.71288,-3.445984 -0.45929,-1.057912 -1.12414,-2.009472 -1.94654,-2.808101 -0.82243,-0.798589 -1.80232,-1.444208 -2.89177,-1.890198 -1.08943,-0.445952 -2.28831,-0.692275 -3.54866,-0.692275 h -72.79886 c -1.26031,0 -2.45923,0.246244 -3.54866,0.692275 -1.08943,0.44599 -2.06935,1.091609 -2.89177,1.890198 -0.82238,0.798629 -1.48725,1.750189 -1.94652,2.808101 -0.45924,1.057914 -0.71291,2.2221 -0.71291,3.445984 v 41.237266 c 0,1.223859 0.2536,2.388085 0.71291,3.445986 0.45927,1.057917 1.12414,2.009473 1.94652,2.808114 0.82242,0.798589 1.80234,1.444194 2.89177,1.89019 1.08943,0.445944 2.28835,0.69228 3.54866,0.69228 z"
       sodipodi:nodetypes="sssssssssssssssssssss" /><path
       id="path115"
       style="fill:#e5371c;stroke-width:3.53266"
       d="m 421.53237,84.111285 h 72.79884 c 1.26035,0 2.45923,-0.24625 3.54868,-0.69228 1.08943,-0.445996 2.06935,-1.091601 2.89178,-1.89019 0.82237,-0.798641 1.48722,-1.750197 1.94651,-2.808114 0.45924,-1.057901 0.71291,-2.222127 0.71291,-3.445986 V 34.037449 c 0,-1.223884 -0.25359,-2.38807 -0.71291,-3.445984 -0.45929,-1.057912 -1.12414,-2.009472 -1.94651,-2.808101 -0.82243,-0.798589 -1.80235,-1.444208 -2.89178,-1.890198 -1.08945,-0.445952 -2.28833,-0.692275 -3.54868,-0.692275 h -72.79884 c -1.26032,0 -2.45922,0.246244 -3.54868,0.692275 -1.08943,0.44599 -2.06934,1.091609 -2.89177,1.890198 -0.82238,0.798629 -1.48722,1.750189 -1.94652,2.808101 -0.45924,1.057914 -0.71291,2.2221 -0.71291,3.445984 v 41.237266 c 0,1.223859 0.2536,2.388085 0.71291,3.445986 0.4593,1.057917 1.12414,2.009473 1.94652,2.808114 0.82243,0.798589 1.80234,1.444194 2.89177,1.89019 1.08946,0.445944 2.28836,0.69228 3.54868,0.69228 z"
       sodipodi:nodetypes="sssssssssssssssssssss" /><path
       id="path117"
       style="fill:#e5371c;stroke-width:3.53266"
       d="m 203.13578,166.58583 h 72.79887 c 1.26035,0 2.45922,-0.24625 3.54866,-0.69228 1.08943,-0.44598 2.06934,-1.0916 2.89177,-1.89019 0.82238,-0.79864 1.48724,-1.7502 1.94651,-2.8081 0.45925,-1.05791 0.71291,-2.22214 0.71291,-3.44598 V 116.512 c 0,-1.22389 -0.25357,-2.38808 -0.71291,-3.44598 -0.45927,-1.05792 -1.12413,-2.00948 -1.94651,-2.8081 -0.82243,-0.79859 -1.80234,-1.44421 -2.89177,-1.89021 -1.08944,-0.44594 -2.28831,-0.69228 -3.54866,-0.69228 h -72.79887 c -1.2603,0 -2.45922,0.24625 -3.54865,0.69228 -1.08943,0.446 -2.06935,1.09162 -2.89177,1.89021 -0.82238,0.79862 -1.48725,1.75018 -1.94652,2.8081 -0.45924,1.0579 -0.71291,2.22209 -0.71291,3.44598 v 41.23728 c 0,1.22384 0.25359,2.38807 0.71291,3.44598 0.45927,1.0579 1.12414,2.00946 1.94652,2.8081 0.82242,0.79859 1.80234,1.44421 2.89177,1.89019 1.08943,0.44596 2.28835,0.69228 3.54865,0.69228 z"
       sodipodi:nodetypes="sssssssssssssssssssss" /><path
       id="path119"
       style="fill:#e5371c;stroke-width:3.53266"
       d="m 312.33407,166.58583 h 72.79886 c 1.26035,0 2.45923,-0.24625 3.54866,-0.69228 1.08945,-0.44598 2.06934,-1.0916 2.89177,-1.89019 0.8224,-0.79864 1.48725,-1.7502 1.94654,-2.8081 0.45922,-1.05791 0.71288,-2.22214 0.71288,-3.44598 V 116.512 c 0,-1.22389 -0.25357,-2.38808 -0.71288,-3.44598 -0.45929,-1.05792 -1.12414,-2.00948 -1.94654,-2.8081 -0.82243,-0.79859 -1.80232,-1.44421 -2.89177,-1.89021 -1.08943,-0.44594 -2.28831,-0.69228 -3.54866,-0.69228 h -72.79886 c -1.26031,0 -2.45923,0.24625 -3.54866,0.69228 -1.08943,0.446 -2.06935,1.09162 -2.89177,1.89021 -0.82238,0.79862 -1.48725,1.75018 -1.94652,2.8081 -0.45924,1.0579 -0.71291,2.22209 -0.71291,3.44598 v 41.23728 c 0,1.22384 0.2536,2.38807 0.71291,3.44598 0.45927,1.0579 1.12414,2.00946 1.94652,2.8081 0.82242,0.79859 1.80234,1.44421 2.89177,1.89019 1.08943,0.44596 2.28835,0.69228 3.54866,0.69228 z"
       sodipodi:nodetypes="sssssssssssssssssssss" /><path
       id="path121"
       style="fill:#e5371c;stroke-width:3.53266"
       d="m 421.53237,166.58583 h 72.79884 c 1.26035,0 2.45923,-0.24625 3.54868,-0.69228 1.08943,-0.44598 2.06935,-1.0916 2.89178,-1.89019 0.82237,-0.79864 1.48722,-1.7502 1.94651,-2.8081 0.45924,-1.05791 0.71291,-2.22214 0.71291,-3.44598 V 116.512 c 0,-1.22389 -0.25359,-2.38808 -0.71291,-3.44598 -0.45929,-1.05792 -1.12414,-2.00948 -1.94651,-2.8081 -0.82243,-0.79859 -1.80235,-1.44421 -2.89178,-1.89021 -1.08945,-0.44594 -2.28833,-0.69228 -3.54868,-0.69228 h -72.79884 c -1.26032,0 -2.45922,0.24625 -3.54868,0.69228 -1.08943,0.446 -2.06934,1.09162 -2.89177,1.89021 -0.82238,0.79862 -1.48722,1.75018 -1.94652,2.8081 -0.45924,1.0579 -0.71291,2.22209 -0.71291,3.44598 v 41.23728 c 0,1.22384 0.2536,2.38807 0.71291,3.44598 0.4593,1.0579 1.12414,2.00946 1.94652,2.8081 0.82243,0.79859 1.80234,1.44421 2.89177,1.89019 1.08946,0.44596 2.28836,0.69228 3.54868,0.69228 z"
       sodipodi:nodetypes="sssssssssssssssssssss" /></g></svg>
